# xmcd
#
# Track frame offsets:
#	150
#	15603
#	37060
#	53506
#	68226
#	79980
#	90631
#	97634
#	143889
#	161057
#
# Disc length: 2447 seconds
#
# Revision: 0
# Processed by: cddbd v1.5PL3 Copyright (c) Steve Scherf et al.
# Submitted via: dBpowerAMP V4.0
#
DISCID=78098d0a
DTITLE=Paul Cummins and the Lion Dogs - Bluteus Maximus
DYEAR=1900
DGENRE=Blues
TTITLE0=The Hookman
TTITLE1=Comet Woman Blues
TTITLE2=Dog My Fleas
TTITLE3=Trailblazin'
TTITLE4=Home Cookin'
TTITLE5=Never Get The Boogie Outta Me
TTITLE6=Driftrock
TTITLE7=Nature Knows
TTITLE8=Chantry Flats
TTITLE9=DATA
EXTD=
EXTT0=
EXTT1=
EXTT2=
EXTT3=
EXTT4=
EXTT5=
EXTT6=
EXTT7=
EXTT8=
EXTT9=
PLAYORDER=
